<svg xmlns="http://www.w3.org/2000/svg" width="200" height="200" viewBox="0 0 200 200">
  <rect width="200" height="200" fill="#121212" rx="20" ry="20"/>
  <g transform="translate(25, 25) scale(0.75)">
    <!-- Spade -->
    <path d="M100,30 C85,30 75,45 75,65 C75,75 80,85 90,95 L75,110 L125,110 L110,95 C120,85 125,75 125,65 C125,45 115,30 100,30 Z" fill="#ffffff"/>
    <!-- Heart -->
    <path d="M100,170 C115,150 130,135 145,135 C160,135 170,145 170,160 C170,175 160,185 145,185 C135,185 125,180 120,170 L100,170 L80,170 C75,180 65,185 55,185 C40,185 30,175 30,160 C30,145 40,135 55,135 C70,135 85,150 100,170 Z" fill="#ff5555"/>
    <!-- Diamond -->
    <path d="M100,100 L75,75 L100,50 L125,75 L100,100 Z" fill="#ff5555"/>
    <!-- Club -->
    <path d="M100,140 C90,140 80,130 80,120 C80,110 90,100 100,100 C110,100 120,110 120,120 C120,130 110,140 100,140 Z" fill="#ffffff"/>
    <path d="M80,120 C70,120 60,110 60,100 C60,90 70,80 80,80 C90,80 100,90 100,100 L80,120 Z" fill="#ffffff"/>
    <path d="M120,120 C130,120 140,110 140,100 C140,90 130,80 120,80 C110,80 100,90 100,100 L120,120 Z" fill="#ffffff"/>
  </g>
</svg> 