<?xml version="1.0" encoding="UTF-8"?>
<svg width="1200" height="630" viewBox="0 0 1200 630" fill="none" xmlns="http://www.w3.org/2000/svg">
  <!-- Dark Background -->
  <rect width="1200" height="630" fill="#121212"/>
  
  <!-- Outer glow effect -->
  <circle cx="600" cy="315" r="205" fill="rgba(255,255,255,0.06)"/>
  
  <!-- Main Poker Chip -->
  <circle cx="600" cy="315" r="200" fill="white"/>
  
  <!-- Decorative rings -->
  <circle cx="600" cy="315" r="180" stroke="#E0E0E0" stroke-width="2"/>
  <circle cx="600" cy="315" r="160" stroke="#E0E0E0" stroke-width="2"/>
  
  <!-- Small decorative dots around the edge (manually calculated) -->
  <circle cx="790" cy="315" r="4" fill="#E0E0E0"/>
  <circle cx="784" cy="367" r="4" fill="#E0E0E0"/>
  <circle cx="766" cy="416" r="4" fill="#E0E0E0"/>
  <circle cx="737" cy="459" r="4" fill="#E0E0E0"/>
  <circle cx="700" cy="494" r="4" fill="#E0E0E0"/>
  <circle cx="654" cy="519" r="4" fill="#E0E0E0"/>
  <circle cx="600" cy="505" r="4" fill="#E0E0E0"/>
  <circle cx="546" cy="519" r="4" fill="#E0E0E0"/>
  <circle cx="500" cy="494" r="4" fill="#E0E0E0"/>
  <circle cx="463" cy="459" r="4" fill="#E0E0E0"/>
  <circle cx="434" cy="416" r="4" fill="#E0E0E0"/>
  <circle cx="416" cy="367" r="4" fill="#E0E0E0"/>
  <circle cx="410" cy="315" r="4" fill="#E0E0E0"/>
  <circle cx="416" cy="263" r="4" fill="#E0E0E0"/>
  <circle cx="434" cy="214" r="4" fill="#E0E0E0"/>
  <circle cx="463" cy="171" r="4" fill="#E0E0E0"/>
  <circle cx="500" cy="136" r="4" fill="#E0E0E0"/>
  <circle cx="546" cy="111" r="4" fill="#E0E0E0"/>
  <circle cx="600" cy="125" r="4" fill="#E0E0E0"/>
  <circle cx="654" cy="111" r="4" fill="#E0E0E0"/>
  <circle cx="700" cy="136" r="4" fill="#E0E0E0"/>
  <circle cx="737" cy="171" r="4" fill="#E0E0E0"/>
  <circle cx="766" cy="214" r="4" fill="#E0E0E0"/>
  <circle cx="784" cy="263" r="4" fill="#E0E0E0"/>
  
  <!-- TL Letters -->
  <text 
    x="600" 
    y="345" 
    font-family="Arial, sans-serif" 
    font-size="120" 
    font-weight="bold" 
    fill="#121212" 
    text-anchor="middle" 
    letter-spacing="-2"
  >TL</text>
  
  <!-- Site Name -->
  <text 
    x="600" 
    y="550" 
    font-family="Arial, sans-serif" 
    font-size="36" 
    font-weight="500" 
    fill="white" 
    text-anchor="middle"
  >Tiny Leagues Poker</text>
</svg> 