<svg xmlns="http://www.w3.org/2000/svg" width="200" height="200" viewBox="0 0 200 200">
  <!-- Background Circle -->
  <circle cx="100" cy="100" r="90" fill="#121212"/>
  
  <!-- Outer Ring -->
  <circle cx="100" cy="100" r="90" fill="none" stroke="#ffffff" stroke-width="10"/>
  
  <!-- Inner Ring -->
  <circle cx="100" cy="100" r="70" fill="none" stroke="#ffffff" stroke-width="4"/>
  
  <!-- Decorative Elements - Larger Diamonds Around Edge -->
  <g>
    <!-- Top -->
    <path d="M100,5 L112,17 L100,29 L88,17 Z" fill="#ffffff"/>
    <!-- Right -->
    <path d="M183,88 L195,100 L183,112 L171,100 Z" fill="#ffffff"/>
    <!-- Bottom -->
    <path d="M100,171 L112,183 L100,195 L88,183 Z" fill="#ffffff"/>
    <!-- Left -->
    <path d="M17,88 L29,100 L17,112 L5,100 Z" fill="#ffffff"/>
    
    <!-- Diagonals -->
    <path d="M145,33 L157,45 L145,57 L133,45 Z" fill="#ffffff"/>
    <path d="M145,143 L157,155 L145,167 L133,155 Z" fill="#ffffff"/>
    <path d="M55,143 L67,155 L55,167 L43,155 Z" fill="#ffffff"/>
    <path d="M55,33 L67,45 L55,57 L43,45 Z" fill="#ffffff"/>
  </g>
  
  <!-- TL Text -->
  <text x="100" y="115" font-family="Arial, sans-serif" font-size="60" font-weight="bold" fill="#ffffff" text-anchor="middle">TL</text>
</svg> 